<svg viewBox="45 17.95454545454544 360.00000000000006 359.090909090909" xmlns="http://www.w3.org/2000/svg" overflow="visible" xmlns:xlink="http://www.w3.org/1999/xlink" width="360.00000000000006px" height="359.090909090909px"><g id="Master/Stickers/Violin" stroke="none" stroke-width="1" fill="none" fill-rule="evenodd"><g id="Group-39" transform="translate(46.000000, 21.000000)"><g id="Group-3" transform="translate(29.000000, 99.363000)" fill="#256ccf"><path d="M0.0373,234.7302 L29.8863,249.8312 C29.8863,249.8312 49.7483,259.6132 68.6093,244.8042 C105.1353,216.1252 117.9543,192.0572 112.9533,190.8492 C112.9533,190.8492 105.4333,186.6152 106.9703,177.1892 C108.5073,167.7642 134.6153,140.8322 144.1503,147.5662 C155.0733,155.2812 166.6143,131.7062 181.1853,121.2762 C195.7563,110.8452 232.3203,84.1002 219.2543,48.9662 C217.8993,45.3222 214.9323,33.9382 216.1913,29.0572 C220.5983,11.9672 233.9543,6.6782 228.5493,0.9882 C226.0013,-1.6928 194.3983,19.5032 194.3983,19.5032 L0.0373,234.7302 Z" id="Fill-1"/></g><path d="M90.2632,200.9455 L96.6052,196.1625 C99.5442,202.2855 105.6772,198.3995 110.6642,194.4445 C150.0272,163.2245 129.3722,164.4345 132.9352,160.7255 C132.9352,160.7255 142.7212,157.9655 172.5652,128.2845 C198.6772,102.3135 223.3992,118.8665 223.3992,118.8665 C223.3992,118.8665 244.3792,136.1885 229.2792,164.1675 C210.1612,199.5895 169.2282,206.5935 165.8182,224.8235 C163.4282,237.6035 159.0982,218.0445 143.7652,229.6575 C119.3182,248.1755 113.7242,267.6175 119.6902,274.3025 C119.6902,274.3025 54.7522,368.1935 22.3182,328.7455 C-16.2458,281.8415 61.0202,228.2255 90.2632,200.9455" id="Fill-4" fill="#899ad5"/><path d="M87.7165,215.2821 C87.3505,215.2821 87.0165,215.2221 86.7205,215.0911 C86.0145,214.7761 85.6425,214.3301 85.6125,213.7621 C85.5045,211.7031 90.2735,208.8891 90.8175,208.5751 C90.9345,208.5081 91.0875,208.5461 91.1585,208.6671 C91.2275,208.7861 91.1865,208.9391 91.0675,209.0091 C89.6615,209.8191 86.0335,212.2501 86.1125,213.7371 C86.1305,214.1061 86.3965,214.3991 86.9235,214.6341 C89.1345,215.6221 94.4545,211.6341 96.7245,209.9321 C98.4475,208.6411 101.0115,206.4821 103.4915,204.3931 C107.1735,201.2931 110.9815,198.0861 112.5245,197.2911 C113.5585,196.7591 114.6105,196.6621 115.1995,197.0431 C115.4925,197.2311 115.6445,197.5191 115.6275,197.8541 C115.5895,198.5821 114.7755,199.3861 113.3325,200.1211 C113.2125,200.1851 113.0595,200.1361 112.9965,200.0111 C112.9345,199.8881 112.9835,199.7381 113.1065,199.6761 C114.5655,198.9321 115.1075,198.2341 115.1275,197.8281 C115.1355,197.6741 115.0705,197.5541 114.9285,197.4631 C114.5625,197.2271 113.7495,197.2221 112.7525,197.7361 C111.2605,198.5051 107.4745,201.6931 103.8135,204.7761 C101.2145,206.9661 98.7595,209.0331 97.0255,210.3331 C94.7875,212.0091 90.4205,215.2811 87.7165,215.2821" id="Fill-6" fill="#1d1d1d"/><path d="M138.1034,198.3311 L134.7094,190.1511 C133.3314,186.8321 134.3464,183.0021 137.1864,180.7991 L286.5574,64.9551 C298.2764,56.7311 325.0904,48.0491 325.0904,48.0491 C327.0434,49.6961 330.1854,63.3481 328.2194,64.9801 L283.9964,82.3221 L145.4634,200.0491 C143.0684,202.1451 139.3234,201.2711 138.1034,198.3311" id="Fill-8" fill="#1d1d1d"/><path d="M15.7716,319.4089 L85.0466,253.5899 C86.6936,251.9489 89.5756,246.9589 87.5196,244.1559 L84.0916,234.8399 C82.4286,232.3249 79.3726,233.2139 77.4376,235.5249 L11.5726,305.5149 L11.8926,307.7009 C11.9526,311.6329 13.5576,314.7259 15.2386,318.2809 L15.7716,319.4089 Z" id="Fill-10" fill="#1d1d1d"/><path d="M283.9969,82.3226 L292.0679,84.4796 C294.4999,84.1776 300.6429,85.5766 310.8839,80.0806 C338.4699,65.2776 347.4409,68.0026 354.3279,58.3906 C367.0029,40.7036 349.5049,18.7416 331.1379,22.8606 C307.2549,28.2176 312.0089,45.7976 314.5959,50.5586 C315.0869,51.4636 317.2139,53.8836 318.9819,55.5596 C322.0879,58.5036 317.3669,63.9726 313.3749,65.5146 L303.5589,69.3066 C296.2459,70.7566 288.9299,77.4346 283.9969,82.3226" id="Fill-12" fill="#899ad5"/><path d="M340.5935,57.5946 C340.1565,57.5946 339.7715,57.5546 339.4435,57.4986 C336.7965,57.0446 334.5595,55.0496 333.6055,52.2896 C332.6025,49.3916 333.2335,46.2986 335.2935,44.0186 C338.9475,39.9736 342.3475,40.2146 344.3085,41.7866 C346.1945,43.2986 346.7085,45.9666 345.4545,47.7346 L343.8235,46.5776 C344.4645,45.6736 344.1145,44.1946 343.0585,43.3476 C341.4365,42.0456 339.0885,42.7986 336.7785,45.3586 C335.2135,47.0896 334.7345,49.4376 335.4945,51.6366 C336.2115,53.7056 337.8535,55.1976 339.7815,55.5276 C342.2035,55.9476 344.8495,54.5196 347.2375,51.5226 C351.2115,46.5326 350.2815,42.2466 348.0835,39.8996 C345.3865,37.0166 339.9435,35.9776 334.7685,39.5676 C325.2825,46.1466 329.4875,55.1446 329.6705,55.5246 L327.8725,56.4016 C327.8205,56.2926 322.7075,45.4976 333.6275,37.9246 C339.7385,33.6846 346.2585,35.0226 349.5445,38.5326 C352.3115,41.4906 353.5705,46.7826 348.8015,52.7686 C345.6285,56.7506 342.5945,57.5946 340.5935,57.5946" id="Fill-14" fill="#256ccf"/><path d="M326.0286,77.6784 C327.4296,81.2494 325.6696,85.2804 322.0986,86.6814 C318.5276,88.0824 314.4966,86.3234 313.0956,82.7514 C311.6946,79.1804 313.4536,75.1494 317.0256,73.7484 C320.5966,72.3474 324.6276,74.1074 326.0286,77.6784" id="Fill-16" fill="#1d1d1d"/><path d="M321.7165,77.4747 L317.7645,80.5387 C317.3505,80.8587 316.7565,80.7837 316.4365,80.3707 L311.2795,73.7177 C310.9585,73.3047 311.0345,72.7107 311.4475,72.3897 L315.3995,69.3257 C315.8125,69.0057 316.4075,69.0807 316.7275,69.4947 L321.8845,76.1467 C322.2045,76.5597 322.1295,77.1547 321.7165,77.4747" id="Fill-18" fill="#1d1d1d"/><path d="M345.8818,68.4 C347.2828,71.971 345.5228,76.002 341.9518,77.403 C338.3798,78.804 334.3498,77.045 332.9488,73.473 C331.5478,69.902 333.3068,65.871 336.8788,64.47 C340.4498,63.069 344.4808,64.829 345.8818,68.4" id="Fill-20" fill="#1d1d1d"/><path d="M340.8113,68.5266 L336.8593,71.5906 C336.4453,71.9106 335.8513,71.8356 335.5313,71.4226 L330.3743,64.7696 C330.0533,64.3566 330.1293,63.7626 330.5423,63.4416 L334.4943,60.3776 C334.9073,60.0576 335.5023,60.1326 335.8223,60.5466 L340.9793,67.1986 C341.2993,67.6116 341.2243,68.2066 340.8113,68.5266" id="Fill-22" fill="#1d1d1d"/><path d="M99.5323,209.947 L99.3453,210.196 C97.7863,212.27 97.3883,214.995 98.2893,217.428 L102.0173,227.495 C103.2453,230.811 105.9883,233.338 109.3933,234.291 L109.9733,234.453 C111.6033,234.91 113.0313,233.267 112.3523,231.716 L102.9943,210.35 C102.3743,208.935 100.4603,208.712 99.5323,209.947" id="Fill-24" fill="#cccccc"/><polygon id="Fill-26" fill="#2f4270" points="61.0759 269.413 59.6799 267.981 104.8039 223.912 291.6279 67.688 318.5459 54.659 319.4169 56.46 292.7219 69.382 106.1429 225.395"/><polygon id="Fill-28" fill="#2f4270" points="62.1052 260.9716 60.7092 259.5396 101.6322 219.5736 289.9952 64.8566 316.8712 51.8946 317.7402 53.6956 291.0792 66.5536 102.9652 221.0616"/><polygon id="Fill-30" fill="#2f4270" points="60.696 257.1522 59.276 255.7442 100.339 214.3782 290.417 61.3662 290.537 61.3132 315.406 50.3072 316.215 52.1352 291.466 63.0892 101.636 215.9012"/><path d="M99.3562,262.4511 C99.1962,262.4511 99.0392,262.4381 98.8832,262.4131 C97.8122,262.2321 97.0032,261.4341 96.4822,260.0421 C94.8972,255.8071 101.2902,250.3201 104.3622,247.6831 C106.4622,245.8801 109.7892,243.4601 113.3102,240.8981 C118.2722,237.2881 123.4032,233.5551 124.6642,231.8041 C125.3842,230.8041 125.5952,229.5971 125.2022,228.7271 C124.9812,228.2411 124.6062,227.9491 124.1452,227.9051 C123.3092,227.8271 122.3182,228.5361 121.3842,229.8521 C121.3042,229.9651 121.1492,229.9931 121.0362,229.9121 C120.9232,229.8321 120.8962,229.6761 120.9762,229.5631 C122.0312,228.0761 123.1622,227.3271 124.1932,227.4071 C124.8312,227.4691 125.3642,227.8751 125.6572,228.5211 C126.1242,229.5501 125.8932,230.9531 125.0702,232.0971 C123.7622,233.9131 118.5982,237.6701 113.6042,241.3031 C110.2462,243.7461 106.7732,246.2721 104.6882,248.0621 C101.9352,250.4261 95.4882,255.9601 96.9512,259.8661 C97.4052,261.0801 98.0842,261.7711 98.9662,261.9201 C101.8682,262.3941 106.1162,257.2951 106.1592,257.2431 C106.2462,257.1371 106.4042,257.1211 106.5102,257.2101 C106.6172,257.2981 106.6312,257.4551 106.5432,257.5611 C106.3712,257.7701 102.4622,262.4511 99.3562,262.4511" id="Fill-32" fill="#1d1d1d"/><g id="Group-36" transform="translate(0.000000, 0.363000)" fill="#1d1d1d"><path d="M284.4436,3.8268 L283.1366,9.4008 C283.0166,9.6618 281.3916,16.9738 281.1716,17.1488 L277.7796,17.7088 L277.7556,13.0428 L9.5906,226.9698 C9.4986,227.0428 14.0556,228.5638 14.0556,228.5638 C14.2426,229.3488 12.3846,231.0698 12.1686,231.0968 L2.5416,228.6208 C0.4586,228.8858 -0.8964,226.0738 0.6996,224.8008 L281.1836,1.0468 C282.8406,-0.2752 285.3416,1.8578 284.4436,3.8268" id="Fill-34"/></g><path d="M278.4517,17.4199 L281.1717,17.5119 L14.5547,230.1049 L12.4207,231.4449 C11.6597,231.5369 10.9187,230.0199 12.5417,228.7249 L276.1487,18.5879 C277.0667,17.8559 277.7187,17.2749 278.4517,17.4199" id="Fill-37" fill="#cccccc"/></g></g></svg>